<svg xmlns="http://www.w3.org/2000/svg" viewBox="0 0 79.45 290.12"><defs><style>.cls-1{fill:#eef1ef;}</style></defs><g id="Layer_2" data-name="Layer 2"><g id="Layer_1-2" data-name="Layer 1"><path class="cls-1" d="M79.45,25.06c0,16.64-11.75,24.86-26.73,24.86H51.16c-14.87,0-26.62-8.22-26.62-24.86S36.29,0,51.16,0h1.56C67.7,0,79.45,8.42,79.45,25.06ZM30,25c0,10.92,8.21,17.88,21.11,17.88h1.66c13,0,21.32-7,21.32-17.88S65.72,7.07,52.72,7.07H51.06C38.16,7.07,30,14,30,25Zm37.43,0c0,7.07-4.78,10.4-11.64,10.4V30c3.74,0,5.82-1.56,5.82-5s-2.81-5.31-8.94-5.31h-1c-6,0-9,1.88-9,5.31s2.08,5,5.93,5v5.41C41.39,35.36,36.4,32,36.4,25S41.49,14.14,51,14.14h1.88C62.29,14.14,67.38,17.89,67.38,25Z"/><path class="cls-1" d="M75.7,84.64c0,15.81-9.77,24.44-21.11,24.44-11.85,0-17.05-6.86-23.81-20.69C27.25,81.11,19.45,68.21,8.94,68.21v42.54H1.46V59.9H8.94c16.85,0,26.1,18.19,29.43,26,3.85,9,8.84,14.87,16.33,14.87,8,0,13.72-6.76,13.72-16.12,0-8.52-6.65-16.53-17.36-16.53h-.31V59.79C65.51,60,75.7,69.77,75.7,84.64Z"/><path class="cls-1" d="M75.7,144.54c0,16.53-11.54,25.89-26.51,25.89h-23c-15,0-26.21-9.36-26.21-25.89s11.23-25.89,26.21-25.89h23C64.16,118.65,75.7,128,75.7,144.54Zm-68.42,0c0,10.19,6.55,17.57,18.51,17.57H49.6c12,0,18.82-7.38,18.82-17.57S61.56,127,49.6,127H25.79C13.83,127,7.28,134.35,7.28,144.54Zm37.85,0a7.46,7.46,0,0,1-7.38,7.28,7.28,7.28,0,1,1,7.38-7.28Z"/><path class="cls-1" d="M75.7,204.23c0,15.8-9.77,24.43-21.11,24.43-11.85,0-17.05-6.86-23.81-20.69-3.53-7.28-11.33-20.18-21.84-20.18v42.54H1.46V179.48H8.94c16.85,0,26.1,18.19,29.43,26,3.85,9.05,8.84,14.87,16.33,14.87,8,0,13.72-6.76,13.72-16.11,0-8.53-6.65-16.54-17.36-16.54h-.31v-8.32C65.51,179.58,75.7,189.36,75.7,204.23Z"/><path class="cls-1" d="M7.28,264c0,9.36,5.2,17.78,15.29,17.78h.62c10.09,0,14.66-8.32,14.66-17.78v-1.46h7v1.35c0,9.36,3.74,14.56,12.17,14.56,8.21,0,11.85-7.07,11.85-14.56,0-7.28-3.64-15.08-11.85-15.08V241c10.29,0,18.71,9.87,18.71,22.87,0,13.94-8.42,22.36-18.71,22.36-6.14,0-11-3.95-13.21-9.67H40c-2.29,7.49-8.74,13.52-16.85,13.52h-.83C9.77,290.12,0,279.82,0,264c0-15.19,8.63-25.9,25-25.79v8.32C13.21,246.44,7.28,254.66,7.28,264Z"/></g></g></svg>