<svg xmlns="http://www.w3.org/2000/svg" viewBox="0 0 57.05 57.05"><defs><style>.cls-1{fill:#f0f2f0;}</style></defs><g id="Layer_2" data-name="Layer 2"><g id="Layer_1-2" data-name="Layer 1"><path class="cls-1" d="M0,7.41a1.41,1.41,0,0,0,.46.89A1.26,1.26,0,0,0,0,7.41Z"/><polygon class="cls-1" points="0.46 8.31 0.47 8.31 0.46 8.3 0.46 8.31"/><path class="cls-1" d="M57.05,49.63l-.22-.2A1.37,1.37,0,0,0,57.05,49.63Z"/><path class="cls-1" d="M12.19,21l.32-.24c.6.59-.15.49.48,1,.61-.19.87,1,1.28.94,0,0,.22.31.08.42.3-.14.33.22.55.34s0-.11,0-.22l.47.31c.08.23,0,.39-.2.25.95,1.1,5.65,6.22,6.86,7.21,0-.3-.43-.53-.3-.92.44.15.38.48.66.46-.27.49.55.73.38,1.34l.3-.14,0,.28c1.5,1.06.4.18,1.48,1.37.69.63,1.31.64,1.56,1.11-.05,0-.06-.33.16-.22-.16.22.59.32.49.6.19.14.7.7.78.26,0,.22.39.76,0,.58.16.17.27.37.45.43l-.14-.28c.59.51.69,1,1.28,1.13l-.1-.3c.35.31.64.56.51.95l-.41-.26a6,6,0,0,0,1.48,1.17l-.15-.17c.84.32,4.07,3.13,4.93,3.34l0-.44.63.29c-.05-.06-.87.43-.85.32,1,1,6.26,5.91,7,7,.25.47-.25.38-.29.41.52.37.4,0,.77.37.06.14-.18.14-.27.11.19.14.27.36.38.28-.13-.28.2-.44.28-.69l.46.51-.18.14c.11.11.71-.16,1.1.41.74.87,1.67,1.69,2.45,2.54-.11.08-.34,0-.56-.15.1.12.29.26.33.43,0-.37.45.23.36,0,1,.21,1.4,1.33,2.19,1.6.39-.3,7-4.8,7.45-5.21A1.67,1.67,0,0,1,57,50c.05-.14-.22-.5-.45-.62l-.25.19c-.47-.31,0-.22-.36-.59.16-.2.55.12.88.41-.26-.3-.4-.71-.71-.63-.19-.33.25-.19,0-.58-.28-.17-.75-.29-.91-.66l0,0c-.44-.82-1.23-.69-1.62-1.45h.12c-.1-.3-.64-.56-.89-1,.06.14,0,.36-.22.16-.3-.53-.7-.71-.87-1.15l-.47-.12c-1.43-1.5-7.47-7-9-8.48l.08,0c-2.33-2.16-6.92-6.77-9.48-8.85a5.78,5.78,0,0,0-1-1.41c.13.28-.06.33-.22.16-1.11-1.15-.19.05-1.42-1a87.93,87.93,0,0,1-7.41-7.75c-.89-.38-1.49-1.36-2.27-1.82h.13c-.77-.57-4.3-4.57-5.16-5.26l.06.14c-.83-.51-.46-.7-.9-1.32-.22.36-1-.06-1.2-.26L13.58,8c-.38-.28-1.38-.79-2-1.3l.18-.14A8.87,8.87,0,0,1,10,5.07,13.85,13.85,0,0,0,7.23,2L7,.92,6.89.87S.45,5.22.63,7.7l-.18.14.28.24c.24.39.57.36.39.49L.71,8.12c.27.36,0,.22-.24.19a2.21,2.21,0,0,1,.28.45c.12,0,0-.11,0-.2.23.12.61.21.75.49.31.34-.23.27.13.67C3.5,11.84,5.26,14,7.31,15.94c0,.11-.07.05-.16,0,.68.54,1.19,1.11,1.82,1.59A.75.75,0,0,1,9,18,28.48,28.48,0,0,1,12.19,21Z"/><path class="cls-1" d="M6.83,57.05a1.43,1.43,0,0,0,.89-.46A1.24,1.24,0,0,0,6.83,57.05Z"/><polygon class="cls-1" points="7.72 56.59 7.73 56.58 7.72 56.59 7.72 56.59"/><path class="cls-1" d="M49,0l-.2.22A1,1,0,0,0,49,0Z"/><path class="cls-1" d="M20.44,44.86l-.25-.32c.6-.6.5.15,1-.48-.18-.61,1-.87.94-1.28,0,0,.31-.22.42-.08-.13-.3.23-.33.35-.55s-.12,0-.23,0l.32-.47c.22-.08.39,0,.24.2,1.1-1,6.22-5.65,7.22-6.86-.31,0-.54.43-.92.3.14-.44.48-.38.45-.66.5.27.73-.55,1.34-.38l-.13-.3.28,0c1.05-1.5.18-.4,1.37-1.48.62-.69.63-1.31,1.11-1.56-.06.05-.34.06-.22-.16.22.16.32-.59.59-.49.14-.19.71-.7.27-.78.22,0,.75-.39.58,0,.17-.16.37-.27.43-.45l-.29.14c.52-.59,1-.69,1.14-1.28l-.31.1c.31-.35.57-.64,1-.51l-.26.41A5.76,5.76,0,0,0,38,26.39l-.17.15c.33-.84,3.14-4.07,3.35-4.93l-.45.05L41,21s.43.87.32.85c1-1,5.92-6.27,7-7,.48-.25.38.25.41.29.37-.52,0-.4.38-.77.14-.06.13.18.1.27.15-.19.37-.27.29-.38-.28.13-.44-.2-.69-.28l.51-.46.13.18c.12-.11-.15-.71.41-1.1.88-.74,1.7-1.67,2.55-2.45.08.11,0,.34-.15.56.11-.1.25-.29.42-.33-.36,0,.23-.45,0-.36.21-1,1.33-1.4,1.59-2.19-.3-.39-4.8-7-5.21-7.45A1.52,1.52,0,0,1,49.46,0c-.14,0-.51.22-.62.45L49,.74c-.32.47-.22,0-.59.36-.2-.16.11-.55.4-.88-.3.26-.7.4-.62.71-.34.19-.19-.25-.58,0-.18.28-.3.75-.66.91l0,0c-.81.44-.69,1.23-1.44,1.62V3.29c-.31.1-.57.64-1,.89.15-.06.37,0,.17.22-.54.3-.71.7-1.16.87l-.12.47c-1.5,1.43-7,7.47-8.48,9l0-.08c-2.15,2.33-6.77,6.92-8.84,9.48a5.6,5.6,0,0,0-1.41,1c.28-.13.33.06.16.22-1.16,1.11,0,.19-1,1.42A85.24,85.24,0,0,1,16,34.2c-.38.89-1.36,1.49-1.82,2.27v-.13c-.57.77-4.58,4.3-5.26,5.16l.14-.06c-.52.83-.7.46-1.32.9.35.22-.06,1-.26,1.2l-.06-.07c-.28.38-.78,1.38-1.29,2L6,45.26A9.2,9.2,0,0,1,4.49,47a13.85,13.85,0,0,0-3.05,2.79L.34,50l-.05.14s4.35,6.44,6.83,6.26l.13.18.24-.28c.4-.24.36-.57.5-.39l-.46.41c.37-.27.23,0,.2.24a1.91,1.91,0,0,1,.44-.28c0-.12-.11,0-.19,0,.12-.23.21-.61.49-.75.33-.31.27.23.66-.13,2.12-1.87,4.24-3.63,6.22-5.68.11,0,.05.07,0,.16.54-.68,1.1-1.19,1.58-1.82a.78.78,0,0,1,.48,0A27.59,27.59,0,0,1,20.44,44.86Z"/></g></g></svg>