<svg xmlns="http://www.w3.org/2000/svg" viewBox="0 0 469.69 219.21"><defs><style>.cls-1{fill:none;stroke:#eef1ef;stroke-miterlimit:10;stroke-width:2px;stroke-dasharray:6.98 6.98;}.cls-2{fill:#1c2321;}.cls-3{fill:#eef1ef;}</style></defs><g id="Layer_2" data-name="Layer 2"><g id="Logo"><g id="Logo_final" data-name="Logo final"><ellipse class="cls-1" cx="363.41" cy="109.6" rx="142.05" ry="51.86" transform="translate(32.65 295.82) rotate(-46.16)"/><circle class="cls-2" cx="375.41" cy="149.09" r="32.19"/><rect class="cls-2" x="268.73" y="126.46" width="24.02" height="45.26" transform="translate(-28.83 221.25) rotate(-41.09)"/><ellipse class="cls-2" cx="363.27" cy="41.5" rx="13.79" ry="8.66" transform="translate(89.25 283.58) rotate(-47.98)"/><g id="logo-2" data-name="logo"><path class="cls-3" d="M92,46.7V31.5H0V46.7H37.6V156.3H0v15.2H92V156.3H54.4V46.7Z"/><path class="cls-3" d="M161.6,68.7c-10.2,0-23.2,3.4-28.4,17.6H126V71.5H110v100h16V117.7c0-23,9.4-35.2,30-35.2,17.6,0,30,9.6,30,32.6v56.4h16V115.1C202,86.3,188.8,68.7,161.6,68.7Z"/><path class="cls-3" d="M281.06,136.67l-1.4-1.55-6.86-7.62c-5.4-5.8-9.4-7.6-12.8-7.6v-6.4c3.4,0,5.8-1.4,11.2-7.4l31.2-34.6h-20l-33.6,37h-12v-87h-16v150h16V124.1h12l22.84,26,1.43,1.63L290.4,171.5h22Z"/><path class="cls-3" d="M370.67,36.6a5,5,0,0,0-4.87-3.5c-3.8,0-8.4,3.8-9.6,8.4a8,8,0,0,0-.18,4.37,5.68,5.68,0,0,0,.86,1.9A4.9,4.9,0,0,0,361,49.9c4,0,8.4-3.8,9.6-8.4A8.05,8.05,0,0,0,370.67,36.6ZM356.8,88.9c5.2-14.8,3-19.4-1.6-19.4-5.6,0-17.2,7.4-28.8,24l2,1.2c17.2-23.2,27.8-25.8,20.6-5.4l-22.8,64.8c-5.2,14.8-3,19.4,1.6,19.4,5.6,0,17.2-7.4,28.8-24l-2-1.2c-17.2,23.2-27.8,25.8-20.6,5.4Z"/><path class="cls-3" d="M390.6,74.1c6.19,0,14.8.8,19.19.8l1-3.6c-5.6,0-14,.4-19.59.4L399,46.3l-1.8-.6c-9,18.2-15,24.8-23,27l-.4,1.6h9l-25.2,78.2c-5,15.4,0,21,5.8,21a23.59,23.59,0,0,0,6.11-.86,31.59,31.59,0,0,0,5.59-2.1c6.84-3.29,14.15-9.42,20.47-19h0l-1.87-.95-.05,0-.18.25c-6.68,9.19-12.84,14.44-17.75,16.51h0c-9.16,3.85-14-3.38-9.7-16.86Z"/></g></g></g></g></svg>