<?xml version="1.0" encoding="utf-8"?>
<!-- Generator: Adobe Illustrator 25.4.1, SVG Export Plug-In . SVG Version: 6.00 Build 0)  -->
<svg version="1.1" id="Layer_1" xmlns="http://www.w3.org/2000/svg" xmlns:xlink="http://www.w3.org/1999/xlink" x="0px" y="0px"
	 viewBox="0 0 1280 1024" style="enable-background:new 0 0 1280 1024;" xml:space="preserve">
<style type="text/css">
	.st0{fill:none;stroke:#000000;stroke-width:3;stroke-miterlimit:10;stroke-dasharray:7.9121,7.9121;}
	.st1{fill:#FFFFFF;}
	.st2{fill:none;stroke:#000000;stroke-miterlimit:10;}
</style>
<g>
	<g>
		
			<ellipse transform="matrix(0.6926 -0.7213 0.7213 0.6926 -172.8495 619.0989)" class="st0" cx="640" cy="512.4" rx="130.9" ry="51.9"/>
	</g>
	<g>
		
			<ellipse transform="matrix(0.7071 -0.7071 0.7071 0.7071 -186.9473 640.6054)" class="st1" cx="679.8" cy="546" rx="18.5" ry="20"/>
	</g>
	<g>
		
			<ellipse transform="matrix(0.6694 -0.7429 0.7429 0.6694 -146.2443 611.1531)" class="st1" cx="613.6" cy="469.9" rx="48.1" ry="24.7"/>
	</g>
	<g>
		<path d="M677.5,536l-1.1-1.2l-5.3-5.9c-4.2-4.5-7.2-5.9-9.9-5.9v-4.9c2.6,0,4.5-1.1,8.6-5.7l24-26.7h-15.4l-25.9,28.5h-9.2v-67
			h-12.3v115.5h12.3v-36.5h9.2l17.6,20l1.1,1.3l13.3,15.2h16.9L677.5,536z"/>
		<g>
			<path class="st2" d="M677.5,536l-1.1-1.2l-5.3-5.9c-4.2-4.5-7.2-5.9-9.9-5.9v-4.9c2.6,0,4.5-1.1,8.6-5.7l24-26.7h-15.4
				l-25.9,28.5h-9.2v-67h-12.3v115.5h12.3v-36.5h9.2l17.6,20l1.1,1.3l13.3,15.2h16.9L677.5,536z"/>
		</g>
	</g>
	<g>
		<path d="M626,437c-0.2-0.7-0.5-1.3-1-1.8c-0.9-1.1-2.2-1.7-3.9-1.7c-3.8,0-8.4,3.8-9.6,8.4c-0.5,1.6-0.5,3.1-0.2,4.4
			c0.2,0.7,0.5,1.4,0.9,1.9c0.9,1.3,2.4,2.1,4.1,2.1c4,0,8.4-3.8,9.6-8.4C626.5,440.1,626.5,438.4,626,437z M612.1,489.3
			c5.2-14.8,3-19.4-1.6-19.4c-5.6,0-17.2,7.4-28.8,24l2,1.2c17.2-23.2,27.8-25.8,20.6-5.4l-22.8,64.8c-5.2,14.8-3,19.4,1.6,19.4
			c5.6,0,17.2-7.4,28.8-24l-2-1.2c-17.2,23.2-27.8,25.8-20.6,5.4L612.1,489.3z"/>
		<g>
			<path class="st2" d="M626,437c-0.2-0.7-0.5-1.3-1-1.8c-0.9-1.1-2.2-1.7-3.9-1.7c-3.8,0-8.4,3.8-9.6,8.4c-0.5,1.6-0.5,3.1-0.2,4.4
				c0.2,0.7,0.5,1.4,0.9,1.9c0.9,1.3,2.4,2.1,4.1,2.1c4,0,8.4-3.8,9.6-8.4C626.5,440.1,626.5,438.4,626,437z"/>
			<path class="st2" d="M612.1,489.3c5.2-14.8,3-19.4-1.6-19.4c-5.6,0-17.2,7.4-28.8,24l2,1.2c17.2-23.2,27.8-25.8,20.6-5.4
				l-22.8,64.8c-5.2,14.8-3,19.4,1.6,19.4c5.6,0,17.2-7.4,28.8-24l-2-1.2c-17.2,23.2-27.8,25.8-20.6,5.4L612.1,489.3z"/>
		</g>
	</g>
</g>
</svg>
